<?xml version="1.0" encoding="UTF-8" standalone="no"?>
<svg width="298px" height="80px" viewBox="0 0 298 80" version="1.1" xmlns="http://www.w3.org/2000/svg" xmlns:xlink="http://www.w3.org/1999/xlink">
    <!-- Generator: Sketch 3.7 (28169) - http://www.bohemiancoding.com/sketch -->
    <title>Group</title>
    <desc>Created with Sketch.</desc>
    <defs></defs>
    <g id="Page-1" stroke="none" stroke-width="1" fill="none" fill-rule="evenodd">
        <g id="Group">
            <text id="Picguard.swift" font-family="Futura-Medium, Futura" font-size="32" font-weight="400" letter-spacing="0.800000012">
                <tspan x="85" y="51" fill="#000000">Picguard</tspan>
                <tspan x="218.61875" y="51" fill="#EF5138">.swift</tspan>
            </text>
            <path d="M50.5267,49.2019 C50.5267,50.3269 50.5437,51.4299 50.3697,52.5069 C49.0167,62.4909 40.2877,70.1849 29.9047,70.1179 C29.5437,70.1229 29.2017,70.1199 28.8367,70.1069 C24.6377,69.9579 20.7907,68.5549 17.5857,66.2779 C14.7037,64.3839 12.3077,61.7339 10.9757,58.6869 C9.8447,56.5289 9.0697,54.2729 8.7127,51.7789 C8.6227,51.1419 8.8457,51.0099 9.2837,50.1409 L9.2847,50.1409 L20.2887,38.9199 C21.8357,37.3329 24.4767,37.1019 26.2137,38.5299 L26.2137,38.5269 C27.9497,39.9439 30.2097,39.8339 31.7607,38.2759 L42.4747,27.4319 C44.1217,25.7779 46.7597,25.7719 48.4137,27.4199 L49.9017,29.0379 C50.3597,29.5049 50.5267,30.1329 50.5267,30.7869 L50.5267,49.2019 Z M22.6677,16.0439 C25.3147,16.0439 27.4607,18.1899 27.4607,20.8379 C27.4607,23.4849 25.3147,25.6309 22.6677,25.6309 C20.0197,25.6309 17.8737,23.4849 17.8737,20.8379 C17.8737,18.1899 20.0197,16.0439 22.6677,16.0439 L22.6677,16.0439 Z M56.0657,6.7169 L30.6617,0.1759 C30.0267,0.0109 29.2987,0.0109 28.6637,0.1759 L3.2217,6.7169 C1.5167,7.1589 0.1637,8.6969 0.1637,10.4579 L0.1637,21.6549 L0.1637,49.6439 C0.1637,65.4319 12.8597,78.7909 28.6377,79.3499 C45.0407,79.9319 59.2097,66.7979 59.2097,50.5119 L59.2097,21.6549 L59.2097,10.4579 C59.2097,8.6969 57.7707,7.1589 56.0657,6.7169 L56.0657,6.7169 Z" id="Fill-33" fill="#EF5138"></path>
        </g>
    </g>
</svg>