<?xml version="1.0" encoding="UTF-8" standalone="no"?>
<svg width="300px" height="80px" viewBox="0 0 300 80" version="1.1" xmlns="http://www.w3.org/2000/svg" xmlns:xlink="http://www.w3.org/1999/xlink">
    <!-- Generator: Sketch 3.7 (28169) - http://www.bohemiancoding.com/sketch -->
    <title>Prerendered</title>
    <desc>Created with Sketch.</desc>
    <defs></defs>
    <g id="Page-1" stroke="none" stroke-width="1" fill="none" fill-rule="evenodd">
        <g id="Prerendered">
            <path d="M222.384375,49.25 C222.384375,48.6666637 222.597915,48.1614605 223.025,47.734375 C223.452086,47.3072895 223.962497,47.09375 224.55625,47.09375 C225.150003,47.09375 225.660415,47.3072895 226.0875,47.734375 C226.514586,48.1614605 226.728125,48.671872 226.728125,49.265625 C226.728125,49.8697947 226.514586,50.3854145 226.0875,50.8125 C225.670831,51.2291687 225.16042,51.4375 224.55625,51.4375 C223.941664,51.4375 223.426044,51.2291687 223.009375,50.8125 C222.592706,50.3958313 222.384375,49.8750031 222.384375,49.25 Z M241.35625,38.375 L238.45,39.921875 C237.991664,38.9843703 237.423962,38.515625 236.746875,38.515625 C236.423957,38.515625 236.147918,38.6223948 235.91875,38.8359375 C235.689582,39.0494802 235.575,39.322915 235.575,39.65625 C235.575,40.2395863 236.252077,40.8177055 237.60625,41.390625 C239.470843,42.1927123 240.726039,42.9322883 241.371875,43.609375 C242.017712,44.2864617 242.340625,45.1979109 242.340625,46.34375 C242.340625,47.8125073 241.798964,49.0416617 240.715625,50.03125 C239.663537,50.9687547 238.392716,51.4375 236.903125,51.4375 C234.351029,51.4375 232.543755,50.1927208 231.48125,47.703125 L234.48125,46.3125 C234.897919,47.0416703 235.215624,47.5052073 235.434375,47.703125 C235.861461,48.0989603 236.371872,48.296875 236.965625,48.296875 C238.153131,48.296875 238.746875,47.7552137 238.746875,46.671875 C238.746875,46.0468719 238.288546,45.4635444 237.371875,44.921875 C237.017707,44.7447908 236.663544,44.5729175 236.309375,44.40625 C235.955207,44.2395825 235.595835,44.0677092 235.23125,43.890625 C234.210412,43.3906225 233.491669,42.8906275 233.075,42.390625 C232.543747,41.7552052 232.278125,40.937505 232.278125,39.9375 C232.278125,38.6145767 232.731246,37.5208377 233.6375,36.65625 C234.564588,35.7916623 235.689577,35.359375 237.0125,35.359375 C238.960427,35.359375 240.408329,36.3645733 241.35625,38.375 Z M248.203125,35.78125 L252.1875,44.46875 L256.484375,34.390625 L260.8125,44.46875 L264.75,35.78125 L268.6875,35.78125 L260.71875,52.140625 L256.484375,42.34375 L252.203125,52.140625 L244.25,35.78125 L248.203125,35.78125 Z M275.378125,35.78125 L275.378125,51 L271.8625,51 L271.8625,35.78125 L275.378125,35.78125 Z M271.33125,29.453125 C271.33125,28.8385386 271.555206,28.3072939 272.003125,27.859375 C272.451044,27.4114561 272.987497,27.1875 273.6125,27.1875 C274.24792,27.1875 274.789581,27.4114561 275.2375,27.859375 C275.685419,28.2968772 275.909375,28.8333302 275.909375,29.46875 C275.909375,30.1041698 275.685419,30.6458311 275.2375,31.09375 C274.799998,31.5416689 274.263545,31.765625 273.628125,31.765625 C272.992705,31.765625 272.451044,31.5416689 272.003125,31.09375 C271.555206,30.6458311 271.33125,30.0989616 271.33125,29.453125 Z M284.271875,39.0625 L284.271875,51 L280.740625,51 L280.740625,39.0625 L279.490625,39.0625 L279.490625,35.78125 L280.740625,35.78125 L280.740625,29.90625 C280.740625,27.9895737 281.073955,26.6354206 281.740625,25.84375 C282.657296,24.7395778 283.990616,24.1875 285.740625,24.1875 C286.365628,24.1875 287.152079,24.3697898 288.1,24.734375 L288.1,28.328125 L287.740625,28.140625 C286.980205,27.7552064 286.355211,27.5625 285.865625,27.5625 C285.240622,27.5625 284.818751,27.7864561 284.6,28.234375 C284.381249,28.6718772 284.271875,29.5156188 284.271875,30.765625 L284.271875,35.78125 L288.1,35.78125 L288.1,39.0625 L284.271875,39.0625 Z M295.7125,39.0625 L295.7125,51 L292.196875,51 L292.196875,39.0625 L290.696875,39.0625 L290.696875,35.78125 L292.196875,35.78125 L292.196875,30.203125 L295.7125,30.203125 L295.7125,35.78125 L298.446875,35.78125 L298.446875,39.0625 L295.7125,39.0625 Z" id="Orange-Text" fill="#EF5138"></path>
            <path d="M92.53125,41.203125 L92.53125,51 L88.890625,51 L88.890625,26.875 L93.015625,26.875 C95.0364684,26.875 96.5624948,27.0156236 97.59375,27.296875 C98.6354219,27.5781264 99.5520794,28.1093711 100.34375,28.890625 C101.729174,30.2447984 102.421875,31.9531147 102.421875,34.015625 C102.421875,36.2239694 101.682299,37.9739519 100.203125,39.265625 C98.7239509,40.5572981 96.7291792,41.203125 94.21875,41.203125 L92.53125,41.203125 Z M92.53125,37.828125 L93.890625,37.828125 C97.2343917,37.828125 98.90625,36.5416795 98.90625,33.96875 C98.90625,31.4791542 97.1823089,30.234375 93.734375,30.234375 L92.53125,30.234375 L92.53125,37.828125 Z M109.815625,35.78125 L109.815625,51 L106.3,51 L106.3,35.78125 L109.815625,35.78125 Z M105.76875,29.453125 C105.76875,28.8385386 105.992706,28.3072939 106.440625,27.859375 C106.888544,27.4114561 107.424997,27.1875 108.05,27.1875 C108.68542,27.1875 109.227081,27.4114561 109.675,27.859375 C110.122919,28.2968772 110.346875,28.8333302 110.346875,29.46875 C110.346875,30.1041698 110.122919,30.6458311 109.675,31.09375 C109.237498,31.5416689 108.701045,31.765625 108.065625,31.765625 C107.430205,31.765625 106.888544,31.5416689 106.440625,31.09375 C105.992706,30.6458311 105.76875,30.0989616 105.76875,29.453125 L105.76875,29.453125 Z M126.9125,36.4375 L126.9125,41.109375 C126.110413,40.1302034 125.39167,39.4583352 124.75625,39.09375 C124.131247,38.7187481 123.396879,38.53125 122.553125,38.53125 C121.230202,38.53125 120.131254,38.994787 119.25625,39.921875 C118.381246,40.848963 117.94375,42.0104097 117.94375,43.40625 C117.94375,44.8333405 118.365621,46.0052037 119.209375,46.921875 C120.063546,47.8385463 121.152077,48.296875 122.475,48.296875 C123.318754,48.296875 124.063538,48.1145852 124.709375,47.75 C125.334378,47.3958316 126.068746,46.7083384 126.9125,45.6875 L126.9125,50.328125 C125.48541,51.067712 124.05834,51.4375 122.63125,51.4375 C120.277072,51.4375 118.308341,50.6770909 116.725,49.15625 C115.141659,47.6249923 114.35,45.7239697 114.35,43.453125 C114.35,41.1822803 115.152075,39.2656328 116.75625,37.703125 C118.360425,36.1406172 120.329155,35.359375 122.6625,35.359375 C124.162508,35.359375 125.57916,35.7187464 126.9125,36.4375 L126.9125,36.4375 Z M145.8375,50.640625 C145.8375,51.3593786 145.814063,51.9921848 145.767188,52.5390625 C145.720312,53.0859402 145.655209,53.5677063 145.571875,53.984375 C145.321874,55.1302141 144.832295,56.1145792 144.103125,56.9375 C142.728118,58.5208412 140.837512,59.3125 138.43125,59.3125 C136.39999,59.3125 134.728132,58.7656305 133.415625,57.671875 C132.061452,56.5468694 131.280209,54.9895933 131.071875,53 L134.603125,53 C134.738542,53.7500037 134.962498,54.328123 135.275,54.734375 C136.00417,55.6822964 137.06666,56.15625 138.4625,56.15625 C141.03543,56.15625 142.321875,54.5781408 142.321875,51.421875 L142.321875,49.296875 C140.926035,50.7239655 139.316676,51.4375 137.49375,51.4375 C135.420823,51.4375 133.722923,50.6875075 132.4,49.1875 C131.06666,47.6666591 130.4,45.7656364 130.4,43.484375 C130.4,41.2656139 131.019786,39.3802161 132.259375,37.828125 C133.592715,36.1822834 135.353114,35.359375 137.540625,35.359375 C139.457301,35.359375 141.051035,36.0729095 142.321875,37.5 L142.321875,35.78125 L145.8375,35.78125 L145.8375,50.640625 Z M142.4625,43.421875 C142.4625,41.9427009 142.066671,40.7604211 141.275,39.875 C140.472913,38.9687455 139.446881,38.515625 138.196875,38.515625 C136.863535,38.515625 135.811462,39.0104117 135.040625,40 C134.342705,40.8854211 133.99375,42.031243 133.99375,43.4375 C133.99375,44.8229236 134.342705,45.9583289 135.040625,46.84375 C135.801046,47.8125048 136.853118,48.296875 138.196875,48.296875 C139.540632,48.296875 140.603121,47.8072966 141.384375,46.828125 C142.103129,45.9427039 142.4625,44.8072986 142.4625,43.421875 L142.4625,43.421875 Z M154.590625,35.78125 L154.590625,44.515625 C154.590625,47.0364709 155.585407,48.296875 157.575,48.296875 C159.564593,48.296875 160.559375,47.0364709 160.559375,44.515625 L160.559375,35.78125 L164.075,35.78125 L164.075,44.59375 C164.075,45.8125061 163.92396,46.8645789 163.621875,47.75 C163.330207,48.5416706 162.825004,49.2552052 162.10625,49.890625 C160.918744,50.9218802 159.408343,51.4375 157.575,51.4375 C155.752074,51.4375 154.246881,50.9218802 153.059375,49.890625 C152.330205,49.2552052 151.814585,48.5416706 151.5125,47.75 C151.220832,47.0416631 151.075,45.9895903 151.075,44.59375 L151.075,35.78125 L154.590625,35.78125 Z M180.53125,35.78125 L184.0625,35.78125 L184.0625,51 L180.53125,51 L180.53125,49.40625 C179.083326,50.7604234 177.52605,51.4375 175.859375,51.4375 C173.755198,51.4375 172.015632,50.6770909 170.640625,49.15625 C169.276035,47.6041589 168.59375,45.6666783 168.59375,43.34375 C168.59375,41.0624886 169.276035,39.1614659 170.640625,37.640625 C172.005215,36.1197841 173.713531,35.359375 175.765625,35.359375 C177.536467,35.359375 179.124993,36.0885344 180.53125,37.546875 L180.53125,35.78125 Z M172.1875,43.34375 C172.1875,44.8020906 172.578121,45.9895787 173.359375,46.90625 C174.161462,47.833338 175.171869,48.296875 176.390625,48.296875 C177.692715,48.296875 178.744788,47.8489628 179.546875,46.953125 C180.348962,46.026037 180.75,44.8489655 180.75,43.421875 C180.75,41.9947845 180.348962,40.817713 179.546875,39.890625 C178.744788,38.9843705 177.703131,38.53125 176.421875,38.53125 C175.213536,38.53125 174.203129,38.9895787 173.390625,39.90625 C172.588538,40.833338 172.1875,41.9791598 172.1875,43.34375 L172.1875,43.34375 Z M189.3,35.78125 L192.815625,35.78125 L192.815625,37.140625 C193.461462,36.4635383 194.034373,36.0000012 194.534375,35.75 C195.044794,35.489582 195.648955,35.359375 196.346875,35.359375 C197.273963,35.359375 198.242703,35.6614553 199.253125,36.265625 L197.64375,39.484375 C196.97708,39.0052059 196.326045,38.765625 195.690625,38.765625 C193.773949,38.765625 192.815625,40.2135272 192.815625,43.109375 L192.815625,51 L189.3,51 L189.3,35.78125 Z M213.06875,24.609375 L216.6,24.609375 L216.6,51 L213.06875,51 L213.06875,49.40625 C211.683326,50.7604234 210.115634,51.4375 208.365625,51.4375 C206.282281,51.4375 204.553132,50.6770909 203.178125,49.15625 C201.813535,47.6041589 201.13125,45.6666783 201.13125,43.34375 C201.13125,41.0729053 201.813535,39.1770909 203.178125,37.65625 C204.532299,36.1249923 206.235406,35.359375 208.2875,35.359375 C210.068759,35.359375 211.662493,36.0885344 213.06875,37.546875 L213.06875,24.609375 Z M204.725,43.34375 C204.725,44.8020906 205.115621,45.9895787 205.896875,46.90625 C206.698962,47.833338 207.709369,48.296875 208.928125,48.296875 C210.230215,48.296875 211.282288,47.8489628 212.084375,46.953125 C212.886462,46.026037 213.2875,44.8489655 213.2875,43.421875 C213.2875,41.9947845 212.886462,40.817713 212.084375,39.890625 C211.282288,38.9843705 210.240631,38.53125 208.959375,38.53125 C207.751036,38.53125 206.740629,38.9895787 205.928125,39.90625 C205.126038,40.833338 204.725,41.9791598 204.725,43.34375 L204.725,43.34375 Z" id="Black-Text" fill="#000000"></path>
            <path d="M50.5267,49.2019 C50.5267,50.3269 50.5437,51.4299 50.3697,52.5069 C49.0167,62.4909 40.2877,70.1849 29.9047,70.1179 C29.5437,70.1229 29.2017,70.1199 28.8367,70.1069 C24.6377,69.9579 20.7907,68.5549 17.5857,66.2779 C14.7037,64.3839 12.3077,61.7339 10.9757,58.6869 C9.8447,56.5289 9.0697,54.2729 8.7127,51.7789 C8.6227,51.1419 8.8457,51.0099 9.2837,50.1409 L9.2847,50.1409 L20.2887,38.9199 C21.8357,37.3329 24.4767,37.1019 26.2137,38.5299 L26.2137,38.5269 C27.9497,39.9439 30.2097,39.8339 31.7607,38.2759 L42.4747,27.4319 C44.1217,25.7779 46.7597,25.7719 48.4137,27.4199 L49.9017,29.0379 C50.3597,29.5049 50.5267,30.1329 50.5267,30.7869 L50.5267,49.2019 Z M22.6677,16.0439 C25.3147,16.0439 27.4607,18.1899 27.4607,20.8379 C27.4607,23.4849 25.3147,25.6309 22.6677,25.6309 C20.0197,25.6309 17.8737,23.4849 17.8737,20.8379 C17.8737,18.1899 20.0197,16.0439 22.6677,16.0439 L22.6677,16.0439 Z M56.0657,6.7169 L30.6617,0.1759 C30.0267,0.0109 29.2987,0.0109 28.6637,0.1759 L3.2217,6.7169 C1.5167,7.1589 0.1637,8.6969 0.1637,10.4579 L0.1637,21.6549 L0.1637,49.6439 C0.1637,65.4319 12.8597,78.7909 28.6377,79.3499 C45.0407,79.9319 59.2097,66.7979 59.2097,50.5119 L59.2097,21.6549 L59.2097,10.4579 C59.2097,8.6969 57.7707,7.1589 56.0657,6.7169 L56.0657,6.7169 Z" id="Shield" fill="#EF5138"></path>
        </g>
    </g>
</svg>